<svg width="100" height="100" viewBox="0 0 100 100" fill="none" xmlns="http://www.w3.org/2000/svg">
<rect width="100" height="100" rx="12" fill="white"/>
<path d="M18 35.0303C18 23.9679 26.9679 15 38.0303 15H80.0013C80.6055 15 81.0954 15.4899 81.0954 16.0941V29.0303C81.0954 32.344 78.4091 35.0303 75.0954 35.0303H18V35.0303Z" fill="#0F172A"/>
<path d="M18 60.4444C18 49.3819 26.9679 40.4141 38.0303 40.4141H64.0704C64.5194 40.4141 64.8834 40.7781 64.8834 41.2271V54.4444C64.8834 57.7581 62.1971 60.4444 58.8834 60.4444H18V60.4444Z" fill="#0F172A"/>
<path d="M18 75.8262C18 70.3033 22.4772 65.8262 28 65.8262V65.8262C33.5228 65.8262 38 70.3033 38 75.8262V75.8262C38 81.349 33.5228 85.8262 28 85.8262V85.8262C22.4772 85.8262 18 81.349 18 75.8262V75.8262Z" fill="#0F172A"/>
</svg>
