<svg width="44" height="42" viewBox="0 0 44 42" fill="none" xmlns="http://www.w3.org/2000/svg">
<path fill-rule="evenodd" clip-rule="evenodd" d="M43.355 9.5827C43.355 7.92585 42.0118 6.5827 40.355 6.5827H29.7168C28.0599 6.5827 26.7168 7.92585 26.7168 9.5827V14.4304C26.7168 16.0872 28.0599 17.4304 29.7168 17.4304H37.2309C38.8878 17.4304 40.2309 18.7735 40.2309 20.4304V21.1571C40.2309 22.814 38.8878 24.1571 37.2309 24.1571H29.7168C28.0599 24.1571 26.7168 25.5003 26.7168 27.1571V38.5271C26.7168 40.1839 28.0599 41.5271 29.7168 41.5271H42.355C42.9073 41.5271 43.355 41.0794 43.355 40.5271V9.5827ZM18.2326 38.5271C18.2326 40.1839 16.8894 41.5271 15.2326 41.5271H1.64503C1.09274 41.5271 0.645031 41.0794 0.645031 40.5271V1.47292C0.645031 0.920633 1.09275 0.472919 1.64503 0.472919H15.2326C16.8894 0.472919 18.2326 1.81606 18.2326 3.47292V38.5271Z" fill="#F4F4F5"/>
</svg>
